<svg fill="none" xmlns="http://www.w3.org/2000/svg" viewBox="0 0 257 26"><path d="M257 .5c-34.942 0-55.976 2.888-67.95 6.658a52.172 52.172 0 00-4.857 1.776 38.33 38.33 0 00-1.299.584c-1.392.66-2.604 1.348-3.636 2.062-2.493 1.725-3.935 3.597-4.335 5.56-.63 3.098 1.447 5.51 3.937 6.826 5.095 2.693 10.817.527 12.416-3.587.836-2.15.424-4.602-1.481-6.734a10.125 10.125 0 00-.298-.32 41.994 41.994 0 00-3.164 1.22c.497.367.901.736 1.225 1.098 1.228 1.375 1.31 2.65.922 3.649-.85 2.185-4.455 4.01-8.218 2.022-1.939-1.025-2.646-2.364-2.399-3.575.095-.469.344-1.022.821-1.636.414-.532 1-1.11 1.807-1.715a18.236 18.236 0 012.097-1.344 28.692 28.692 0 012.234-1.11 39.237 39.237 0 011.816-.758 53.207 53.207 0 013.313-1.158C201.408 6.41 222.042 3.5 257 3.5v-3zM0 16.088l1.164 2.764c5.425-2.295 15.571-4.815 28.773-7.071 13.162-2.25 29.249-4.217 46.487-5.442 33.084-2.35 70.267-1.952 99.105 4.378.902-.828 1.962-1.612 3.178-2.354C149.101 1.389 110.363.92 76.211 3.347c-17.327 1.23-33.512 3.21-46.78 5.477C16.205 11.084 5.769 13.649 0 16.088z" fill="#17E69A"/></svg>