<svg fill="none" xmlns="http://www.w3.org/2000/svg" viewBox="0 0 26 26"><path d="M13.001 0c-3.53 0-3.973.015-5.36.079C6.257.142 5.312.36 4.486.683a6.366 6.366 0 00-2.303 1.499 6.382 6.382 0 00-1.5 2.302C.36 5.311.14 6.256.077 7.64.016 9.026 0 9.47 0 13c0 3.53.016 3.973.079 5.36.063 1.383.282 2.328.604 3.154a6.37 6.37 0 001.499 2.303 6.366 6.366 0 002.302 1.5c.827.322 1.772.541 3.156.605C9.026 25.985 9.47 26 13 26c3.53 0 3.972-.015 5.359-.078 1.384-.064 2.33-.283 3.157-.604a6.362 6.362 0 002.301-1.5 6.382 6.382 0 001.5-2.303c.32-.827.54-1.772.605-3.156.062-1.386.078-1.828.078-5.359 0-3.53-.016-3.974-.078-5.36-.066-1.384-.285-2.329-.605-3.155a6.38 6.38 0 00-1.5-2.303 6.354 6.354 0 00-2.302-1.5c-.829-.321-1.774-.54-3.158-.603C16.97.015 16.529 0 12.997 0h.004zm-1.166 2.343h1.166c3.471 0 3.883.012 5.253.074 1.268.058 1.956.27 2.414.448a4.02 4.02 0 011.494.972c.455.455.737.889.973 1.495.178.458.39 1.146.447 2.414.063 1.37.076 1.782.076 5.251 0 3.47-.013 3.881-.076 5.252-.057 1.267-.27 1.955-.447 2.413a4.019 4.019 0 01-.973 1.493 4.02 4.02 0 01-1.494.973c-.458.178-1.146.39-2.414.448-1.37.062-1.782.075-5.253.075s-3.882-.013-5.253-.075c-1.267-.059-1.955-.27-2.414-.449a4.026 4.026 0 01-1.495-.972 4.029 4.029 0 01-.973-1.494c-.178-.458-.39-1.146-.447-2.413-.063-1.37-.075-1.783-.075-5.254 0-3.472.012-3.881.075-5.252.058-1.267.27-1.955.447-2.413a4.03 4.03 0 01.973-1.495 4.035 4.035 0 011.495-.973c.458-.179 1.147-.39 2.414-.448 1.2-.055 1.664-.07 4.087-.074v.004zM19.941 4.5a1.56 1.56 0 100 3.12 1.56 1.56 0 000-3.12zM13 6.324a6.676 6.676 0 10.001 13.353A6.676 6.676 0 0013 6.324zm0 2.343a4.333 4.333 0 110 8.667 4.333 4.333 0 010-8.667z" fill="#fff"/></svg>