<svg fill="none" xmlns="http://www.w3.org/2000/svg" viewBox="0 0 60 60"><rect opacity=".1" width="60" height="60" rx="10" fill="#009961"/><path d="M36.5 36.5L32 32m13 16L35 38l3-3 10 10-3 3zM35 23.5C35 29.851 29.851 35 23.5 35S12 29.851 12 23.5 17.149 12 23.5 12 35 17.149 35 23.5zm-9 0a2.5 2.5 0 11-5 0 2.5 2.5 0 015 0zm5 0S27.642 28 23.5 28c-4.142 0-7.5-4.5-7.5-4.5s3.358-4.5 7.5-4.5c4.142 0 7.5 4.5 7.5 4.5z" stroke="#009961" stroke-width="2" stroke-linecap="round" stroke-linejoin="round"/></svg>