<svg fill="none" xmlns="http://www.w3.org/2000/svg" viewBox="0 0 14 11"><path fill-rule="evenodd" clip-rule="evenodd" d="M8.499 4.508l.34-.34 1.64-1.64 1.466-1.466L10.883 0 8.756 2.127A12.043 12.043 0 007 2C3.134 2 0 3.79 0 6c0 1.105.785 2.106 2.053 2.83L.999 9.884l1.062 1.062 1.47-1.47 1.643-1.642.335-.336 2.99-2.99zM6.88 4.003L6.882 4c-1.598.018-2.948.398-3.84.907C2.073 5.462 2 5.923 2 6c0 .077.073.538 1.043 1.092.153.087.32.171.498.25l1.214-1.214A1.805 1.805 0 014.75 6c0-1.069.943-1.942 2.13-1.997z" fill="#C9CBCF"/><path d="M9.246 5.886l-2.11 2.11C8.316 7.934 9.25 7.064 9.25 6c0-.038-.001-.076-.004-.114z" fill="#C9CBCF"/><path d="M7.134 8L5.258 9.874C5.815 9.957 6.398 10 7 10c3.866 0 7-1.79 7-4 0-1.102-.78-2.1-2.043-2.824L10.47 4.663c.175.077.337.16.487.245C11.928 5.462 12 5.923 12 6c0 .077-.073.538-1.043 1.092-.888.508-2.232.887-3.823.907z" fill="#C9CBCF"/></svg>