<svg fill="none" xmlns="http://www.w3.org/2000/svg" viewBox="0 0 60 60"><rect opacity=".1" width="60" height="60" rx="10" fill="#EB743B"/><path d="M37.286 49s-3.033-3.133-6.485-5.43m7.008-1.045c-1.778 1.149-4.811-1.671-4.811-1.671m1.673 1.149s-4.079-10.758-4.602-12.324c-.837-2.193 2.406-3.551 3.347-1.149m0 0l2.928 7.833m-2.928-7.833l-.732-1.83c-.732-2.089 2.51-3.079 3.242-1.094l3.66 9.921M36.5 27.161c-.732-1.985 2.564-3.122 3.296-1.138.732 2.09 3.033 8.147 3.033 8.147m-2.078-5.53c-.837-2.297 2.287-3.243 3.124-1.259 0 0 2.72 6.684 3.452 8.773 1.568 3.864 1.673 8.46 1.673 8.46m-9.936-4.805c4.288.21 5.23 4.805 5.23 4.805m-9.31-24.021l1.57-3.76m-6.59 3.029L29.443 9m-4.184 12.324L23.27 16.52m-.628 32.271c1.36-2.297 6.171-7.102 7.322-8.25 1.464-1.567-1.256-3.76-2.615-2.194l-2.929 3.238s2.406-10.966 2.824-12.742c.523-2.193-2.928-2.924-3.347-.73m0 0l-1.882 8.459m1.882-8.46l.34-1.566c.419-2.09-2.95-3.046-3.582-.731-.523 2.088-2.301 9.921-2.301 9.921m1.922-8.346c.523-2.088-2.863-2.829-3.282-.74l-1.987 8.46m1.36-5.744c.523-2.298-2.929-3.03-3.347-.836-.419 2.193-1.778 7.206-2.301 9.4-1.046 4.386-.732 6.475-.418 8.25" stroke="#EB743B" stroke-width="2" stroke-linecap="round" stroke-linejoin="round"/></svg>