<svg fill="none" xmlns="http://www.w3.org/2000/svg" viewBox="0 0 28 24"><path d="M28 3.46c-1.03.465-2.13.78-3.297.922a5.855 5.855 0 002.519-3.236 11.269 11.269 0 01-3.646 1.42c-4.648-4.698-11.202.175-9.789 5.345-4.771-.244-9.01-2.568-11.837-6.118-1.626 2.819-.567 6.285 1.778 7.81a5.63 5.63 0 01-2.6-.734c-.002.025-.002.05-.002.074 0 2.84 1.98 5.199 4.608 5.742-.895.225-1.75.26-2.6.1.73 2.318 2.846 4.009 5.365 4.072C5.959 20.823 3.01 21.634 0 21.279c12.963 7.767 25.19-2.402 25.148-14.032 0-.252-.005-.504-.016-.755A12.033 12.033 0 0028 3.464" fill="#fff"/></svg>