<svg fill="none" xmlns="http://www.w3.org/2000/svg" viewBox="0 0 26 26"><path d="M22.153 22.153h-3.852V16.12c0-1.439-.026-3.29-2.004-3.29-2.006 0-2.313 1.567-2.313 3.185v6.138H10.13V9.746h3.699v1.696h.051a4.053 4.053 0 013.65-2.004c3.904 0 4.624 2.568 4.624 5.91l-.002 6.805zM5.785 8.05a2.236 2.236 0 11-.001-4.47 2.236 2.236 0 010 4.47zM7.71 22.153H3.854V9.746h3.857v12.407zM24.074.002H1.919A1.897 1.897 0 000 1.876v22.247a1.899 1.899 0 001.919 1.876h22.155A1.903 1.903 0 0026 24.123V1.874A1.901 1.901 0 0024.074 0" fill="#fff"/></svg>