<svg fill="none" xmlns="http://www.w3.org/2000/svg" viewBox="0 0 60 60"><rect opacity=".1" width="60" height="60" rx="10" fill="#17E69A"/><path d="M40 15H20a8 8 0 00-8 8v8c0 4.418 2.582 8 7 8 3 2 3 8 3 8s3-7 12-8h6a8 8 0 008-8v-8a8 8 0 00-8-8z" stroke="#17E69A" stroke-width="2" stroke-linecap="round" stroke-linejoin="round"/><path d="M24 27a2 2 0 11-4 0 2 2 0 014 0zm8 0a2 2 0 11-4 0 2 2 0 014 0zm8 0a2 2 0 11-4 0 2 2 0 014 0z" stroke="#17E69A" stroke-width="2" stroke-linecap="round" stroke-linejoin="round"/></svg>