<svg fill="none" xmlns="http://www.w3.org/2000/svg" viewBox="0 0 60 60"><rect opacity=".1" width="60" height="60" rx="10" fill="#00BFE9"/><path d="M30.966 40.023c.776 2.329 2.127 4.046 3.205 4.477h7.116c1.035 0 1.605-2.422 1.713-3.5 3.816-.531 4.85-3.594 3.816-9.476m-15.85 8.499c-2.51.304-6.857.18-9.38-2.837m9.38 2.837c2.372-.431 3.387-1.906 4.034-3.523m-13.415.687c-1.052-1.26-1.788-2.965-1.94-5.25-.43-6.437 9.057-9.728 19.408-2.265m-17.467 7.515C17 39 8 38.082 8 29.672c0-7.763 6.146-8.734 6.146-8.734M15 24.497c-3.5-5.997 3.863-11.1 10.467-8.581m2.588 1.464a10.03 10.03 0 00-2.588-1.464m0 0c2.539-1.643 8.03-3.489 11.968.358m1.617 2.077a10.265 10.265 0 00-1.617-2.077m0 0c2.696-1.572 9.38-.058 11.968 8.223m-7.116.323c3.127-1.294 9.422-1.94 9.704 5.822.259 7.116-5.175 7.44-5.175 7.44M31.5 18c.061 2.168 2.334 4.703 6.935 5.5M33 30.642c1 3.239 6.2 5.044 10 2.358m-26-4c-.443-2.208.854-6.71 5.585-7.062m2.915 7.734c2.313.636 4.65 2.756 3.5 6.146" stroke="#00BFE9" stroke-width="2" stroke-linecap="round" stroke-linejoin="round"/></svg>