<svg fill="none" xmlns="http://www.w3.org/2000/svg" viewBox="0 0 60 60"><rect opacity=".1" width="60" height="60" rx="10" fill="#2F63AF"/><path d="M20.55 36L16.5 46l5-.75L24.75 49l3.5-9m11.2-4l4.05 10-5-.75L35.25 49l-3.5-9M37 26a7 7 0 11-14 0 7 7 0 0114 0zm-7-15l3.416 2.25 4.084-.24 1.834 3.656L42.99 18.5l-.24 4.084L45 26l-2.25 3.416.24 4.084-3.656 1.834L37.5 38.99l-4.084-.24L30 41l-3.416-2.25-4.084.24-1.834-3.656L17.01 33.5l.24-4.084L15 26l2.25-3.416-.24-4.084 3.656-1.834L22.5 13.01l4.084.24L30 11z" stroke="#2F63AF" stroke-width="2" stroke-linecap="round" stroke-linejoin="round"/></svg>