<svg fill="none" xmlns="http://www.w3.org/2000/svg" viewBox="0 0 18 18"><path fill-rule="evenodd" clip-rule="evenodd" d="M18 9A9 9 0 110 9a9 9 0 0118 0zm-8-6.5v1.837c.806.122 1.739.355 2.816.714l-.632 1.898c-2.968-.99-4.086-.724-4.43-.523-.233.136-.254.339-.254.574 0 .216.047.321.082.376a.66.66 0 00.256.215c.345.188.855.291 1.591.425l.075.014c.63.114 1.456.264 2.116.623.367.2.727.487.99.903.265.422.39.91.39 1.444 0 1.01-.78 2.079-2.106 2.564-.275.1-.573.177-.894.227V15.5H8v-1.73c-.852-.128-1.812-.4-2.885-.847l.77-1.846c2.27.946 3.62.866 4.322.609.679-.249.782-.645.792-.683L11 11c0-.216-.047-.321-.082-.376a.657.657 0 00-.256-.215c-.345-.188-.855-.291-1.59-.425l-.076-.014c-.63-.114-1.456-.263-2.115-.623a2.64 2.64 0 01-.99-.903C5.625 8.023 5.5 7.534 5.5 7v-.013c0-.291-.003-1.56 1.245-2.287A3.404 3.404 0 018 4.286V2.5h2z" fill="#757D8A"/></svg>