<svg xmlns="http://www.w3.org/2000/svg" viewBox="0 0 36.889 50"><defs><linearGradient id="a" y1="25" x2="36.889" y2="25" gradientUnits="userSpaceOnUse"><stop offset="0" stop-color="#2f63af"/><stop offset=".95" stop-color="#00bfe9"/></linearGradient></defs><g data-name="Layer 2"><path d="M21.707 0H2.638A2.606 2.606 0 00.77.759 2.724 2.724 0 000 2.633v14.345a2.629 2.629 0 002.632 2.634l2.773.01A11.3 11.3 0 0112.7 22.1h5.175c-2.1-4.312-7.4-6.609-12.462-6.609h-1.28V4.139h17.57a11.051 11.051 0 010 22.1H2.577a2.524 2.524 0 00-2.561 2.5v8.209l.007.171A14.4 14.4 0 0014.506 50h1.675a2.609 2.609 0 002.634-2.634V34.5h-4.133v11.367h-.176c-5.269 0-9.895-4.037-10.355-9.016v-6.482h17.556a15.185 15.185 0 000-30.369z" fill="url(#a)" data-name="Layer 1"/></g></svg>