<?xml version="1.0" standalone="no"?>
<!DOCTYPE svg PUBLIC "-//W3C//DTD SVG 20010904//EN"
 "http://www.w3.org/TR/2001/REC-SVG-20010904/DTD/svg10.dtd">
<svg version="1.0" xmlns="http://www.w3.org/2000/svg"
 width="1000.000000pt" height="1000.000000pt" viewBox="0 0 1000.000000 1000.000000"
 preserveAspectRatio="xMidYMid meet">
<metadata>
Created by potrace 1.11, written by Peter Selinger 2001-2013
</metadata>
<g transform="translate(0.000000,1000.000000) scale(0.100000,-0.100000)"
fill="#000000" stroke="none">
<path d="M0 5000 l0 -5000 5000 0 5000 0 0 5000 0 5000 -5000 0 -5000 0 0
-5000z m6032 2642 c363 -67 667 -229 924 -493 180 -186 299 -380 383 -623 58
-167 82 -302 88 -488 6 -176 -5 -299 -42 -455 -144 -608 -619 -1086 -1238
-1244 -185 -47 -227 -49 -1325 -49 l-1033 0 3 -412 c4 -383 6 -418 25 -478 61
-194 154 -350 287 -483 200 -200 467 -324 746 -346 58 -5 108 -7 113 -4 4 2 7
287 7 634 l0 629 225 0 225 0 -2 -757 -3 -758 -29 -53 c-32 -57 -81 -102 -143
-130 -55 -25 -423 -23 -568 2 -348 62 -649 219 -895 466 -223 223 -368 494
-424 789 -13 69 -16 171 -16 615 l0 531 24 50 c12 28 40 65 61 84 81 71 -17
65 1285 71 1074 5 1182 7 1258 23 254 54 465 171 644 355 176 181 280 376 334
627 26 122 24 350 -5 485 -54 254 -168 458 -358 641 -137 132 -278 218 -461
279 -182 61 -165 60 -1298 60 l-1034 0 0 -634 0 -633 198 -6 c157 -4 221 -11
319 -31 448 -95 811 -330 983 -638 l32 -58 -286 0 -285 0 -63 48 c-122 92
-283 162 -471 203 -75 17 -145 22 -382 28 -288 7 -290 7 -340 33 -62 33 -108
80 -134 138 -20 44 -21 62 -21 910 l0 865 24 50 c31 67 68 110 125 143 l46 27
800 5 c1386 9 1561 7 1697 -18z"/>
</g>
</svg>
